<svg xmlns="http://www.w3.org/2000/svg" viewBox="0 0 3237.97 679.5"><g id="bac793a1-59ed-42d3-8328-3c98f8d8ddb5" data-name="Layer 3"><circle cx="334.6" cy="340.71" r="334.6" style="fill:#f6921a"/><path d="M580.26,416.63c3.78,2.33,7.3,4.35,10.66,6.6,21,14,31.22,33.32,28,58.79-2.29,18.15-8.32,35-19.48,49.72C588,546.79,572.39,554.8,554,558c-16.49,2.84-33,1.89-49.43-.26-6-.78-11.86-1.82-17.77-2.89-1.77-.32-2.37.12-2.8,1.88-4.53,18.46-9.21,36.89-13.72,55.36-.58,2.36-1.29,3-3.8,2.34-10.16-2.7-20.39-5.21-30.62-7.65-2.21-.52-2.95-1.06-2.3-3.61,4.65-18,9.05-36.17,13.64-54.24.54-2.11.24-2.88-2-3.41-8-1.94-15.92-4-23.84-6.19-2-.55-2.82-.2-3.36,2-4.47,18.29-9.13,36.54-13.6,54.83-.54,2.2-1.24,2.51-3.34,2Q385.6,594,370,590.28c-2.18-.51-2.57-1.22-2-3.35,4.65-18.34,9.13-36.72,13.79-55.06.59-2.31.25-3.18-2.13-3.77-22.75-5.66-45.46-11.47-68.21-17.12-2.19-.54-2.35-1.14-1.5-3.06q8.16-18.5,16.06-37.1c.85-2,1.72-2.24,3.7-1.72,8.48,2.22,16.86,4.89,25.53,6.28,7.61,1.22,13.49-2.66,15.38-10.18q9.94-39.46,19.77-79c6.74-27.05,13.31-54.14,20.28-81.12,2-7.84-.76-18.7-12.07-22.87-6.61-2.43-13.48-3.86-20.29-5.53-2.87-.71-5.74-1.42-8.63-2-1.29-.27-1.89-.53-1.48-2.13q4.53-17.7,8.83-35.47c.56-2.31,1.89-1.5,3.13-1.19q19.09,4.68,38.17,9.43c10,2.49,20.08,4.93,30.08,7.53,2.13.55,3,.22,3.51-2.05,4.41-18.11,9-36.18,13.39-54.3.59-2.43,1.39-3,3.8-2.33,10.08,2.66,20.2,5.22,30.35,7.57,2.59.6,3.12,1.4,2.47,4-4.53,17.71-8.86,35.46-13.37,53.17-.5,2-.28,2.66,1.83,3.13,8.12,1.77,16.2,3.7,24.25,5.74,2.18.56,2.82-.14,3.31-2.14,4.26-17.39,8.61-34.76,12.94-52.14.9-3.61.89-3.63,4.47-2.73,10.11,2.52,20.21,5.14,30.36,7.54,2.19.52,2.52,1.26,2,3.36-4.63,18.25-9.09,36.54-13.75,54.78-.56,2.18,0,2.87,2,3.54,15.93,5.54,31.28,12.3,44.84,22.56,12.44,9.4,22.45,20.91,25.09,36.64,4.28,25.56-1.12,48.53-21.56,66.23-6,5.22-13.35,8.17-21,10.37Zm-82.42,90.25a82,82,0,0,0,19-2.14c13-3.26,22.29-10.52,25.93-23.83s.27-25-9.72-34.64c-6.67-6.45-14.58-11-23-14.73-18.5-8.27-38.22-12.38-57.82-16.9-2-.47-1.87.8-2.14,1.89q-9.51,38-19,76c-.47,1.83.1,2.39,1.8,2.8,6.27,1.52,12.5,3.25,18.77,4.77C466.62,503.71,481.66,506.55,497.84,506.88Zm16.6-119.51A70.1,70.1,0,0,0,528.69,386c12.61-2.75,21.7-9.53,25.32-22.38,3.72-13.24.57-24.6-9.72-33.89A68.4,68.4,0,0,0,526,318.37c-14.77-6.58-30.5-9.84-46.15-13.41-1.65-.37-2.06.34-2.39,1.71-1.33,5.56-2.73,11.1-4.12,16.65q-6.47,25.9-13,51.8c-.45,1.79-.13,2.68,1.76,3s3.76.94,5.64,1.43C482.92,383.53,498.08,387.19,514.44,387.37Z" transform="translate(-145.14 -69.69)" style="fill:#fefefd"/><circle cx="1181.03" cy="334.6" r="334.6" style="fill:#fff"/><path d="M1153.58,409.38a.33.33,0,0,0,.26,0c1.1-1,2.57-1.4,3.89-2,7.53-3.43,15.08-6.84,22.61-10.29L1200.2,388q11.43-5.22,22.87-10.4l19.37-8.8,23-10.45,19.49-8.86,22.75-10.34,16.74-7.62c.59-.27,1.14-.84,1.9-.43a1.11,1.11,0,0,1,.19.45,13.83,13.83,0,0,1,.06,1.93V509a4.17,4.17,0,0,1-.38,2.53c-5.2-3-10.41-6.06-15.6-9.13l-133.42-78.87-23.59-13.92Z" transform="translate(-145.14 -69.69)" style="fill:#393939"/><path d="M1326.19,511.57q0-89.62,0-179.27c0-.41,0-.82,0-1.23a5.56,5.56,0,0,1-.14-1.77q0-101.58,0-203.16c0-.79-.43-1.77.61-2.31,3.72,6.13,7.46,12.25,11.16,18.4q80,132.69,159.89,265.37c.35.59.67,1.19,1,1.78-.78.39-1.43-.1-2.06-.39l-13.13-6-25.89-11.76q-12.89-5.86-25.76-11.72-13-6-26.13-11.89l-25.38-11.54-26.27-11.93-25.38-11.55-.74-.35c-.73-.34-1.15-.19-1.15.69,0,.5,0,1,0,1.51q0,87.12,0,174.23c0,.9.23,1.85-.37,2.67C1326.43,511.52,1326.39,511.67,1326.19,511.57Z" transform="translate(-145.14 -69.69)" style="fill:#343434"/><path d="M1326.47,511.38q0-21.57,0-43.14,0-67.59,0-135.18c0-2,0-1.94,1.86-1.09q14.9,6.79,29.81,13.55c6.57,3,13.13,6,19.7,9q14.28,6.48,28.59,12.94c5.45,2.47,10.88,5,16.33,7.46,7.81,3.56,15.64,7.09,23.46,10.65l16.33,7.46,23,10.4,12.6,5.73c.2.09.43.14.64.21,0,.75-.68.76-1.08,1Q1454.4,436,1411.1,461.58q-41.22,24.38-82.45,48.74A5.05,5.05,0,0,1,1326.47,511.38Z" transform="translate(-145.14 -69.69)" style="fill:#141414"/><path d="M1326.45,544.32q18.06-10.7,36.12-21.37l102.28-60.4,32.36-19.1c.37-.21.69-.62,1.24-.48,0,.5-.41.79-.66,1.14q-85.21,120.06-170.45,240.09c-.31.44-.38,1.23-1.21,1.16a5.19,5.19,0,0,1-.4-2.27q0-68.21,0-136.4C1325.74,545.85,1325.56,544.91,1326.45,544.32Z" transform="translate(-145.14 -69.69)" style="fill:#3c3c3b"/><path d="M1326.45,544.32a3.74,3.74,0,0,0-.23,2q0,68.56,0,137.12c0,.63,0,1.27-.08,1.91-2.43-3-4.52-6.2-6.74-9.33q-29.51-41.52-59-83.09l-58.79-82.89L1154.76,444c-.27-.38-.53-.75-1-1.48,1,.56,1.71.91,2.37,1.3l101.63,60.09q33.8,20,67.61,39.94A11,11,0,0,0,1326.45,544.32Z" transform="translate(-145.14 -69.69)" style="fill:#8b8b8b"/><path d="M1326.7,123.83c-.44.52-.23,1.14-.23,1.72q0,101.84,0,203.66c0,.62.22,1.29-.24,1.86l0,0a1.8,1.8,0,0,1-.44-1.39c0-.55,0-1.1,0-1.65V126.66a7.38,7.38,0,0,1,.48-3.36l.26-.07Z" transform="translate(-145.14 -69.69)" style="fill:#393939"/><path d="M1326.21,123.3V330.5c0,.19,0,.37,0,.55q-12.15,5.58-24.32,11.15c-8.57,3.91-17.16,7.78-25.74,11.68l-44.46,20.2-31.1,14.15-46.08,20.95a4.43,4.43,0,0,1-.65.18c2.56-4.33,5.1-8.67,7.7-13q33-54.75,66-109.49l84.26-139.81q6.95-11.52,13.89-23A8,8,0,0,1,1326.21,123.3Z" transform="translate(-145.14 -69.69)" style="fill:#8b8b8b"/><circle cx="2019.52" cy="339.66" r="334.66" style="fill:#6a5aa5"/><path d="M2407.63,348.56l-17.92,9.14a37,37,0,0,0-20.07,35.76q.6,7.85.6,15.85v.31c-.16,113.4-92.14,205.28-205.58,205.28a204.68,204.68,0,0,1-120.61-39.08l38.64-19.69A168.19,168.19,0,0,0,2331.6,429.31a171.05,171.05,0,0,0-.24-41.89L2049,531.3l-35,17.85-92.26,47v-42l69-35.18,33.57-17.1,297.77-151.72,33.56-17.1,52-26.5Z" transform="translate(-145.14 -69.69)" style="fill:#fff"/><path d="M1921.69,470.15l17.92-9.13a37,37,0,0,0,20.07-35.76q-.6-7.85-.61-15.86v-.3c.17-113.4,92.15-205.28,205.59-205.28a204.61,204.61,0,0,1,120.61,39.08l-38.65,19.69a168.18,168.18,0,0,0-248.9,126.82,169.66,169.66,0,0,0,.24,41.88l282.38-143.88,35-17.84,92.27-47v42l-69.05,35.18L2305,316.84,2007.25,468.56l-33.57,17.1-52,26.49Z" transform="translate(-145.14 -69.69)" style="fill:#fff"/><circle cx="2903.31" cy="344.85" r="334.66" style="fill:#345d9d"/><polygon points="2874.79 473.69 2909.47 356.84 2963.25 340.56 2974.74 301.87 2920.95 318.15 2981.81 113.1 2886.51 113.1 2816.25 349.85 2762.46 366.14 2750.98 404.83 2804.76 388.54 2756.65 550.66 3051.03 550.67 3073.87 473.69 2874.79 473.69" style="fill:#fff"/></g></svg>